<mxfile host="app.diagrams.net" agent="Mozilla/5.0 (Windows NT 10.0; Win64; x64) AppleWebKit/537.36 (KHTML, like Gecko) Chrome/131.0.0.0 Safari/537.36" version="24.9.2">
  <diagram name="第 1 页" id="7I7pL57d6oraw_pO1p0B">
    <mxGraphModel dx="1877" dy="530" grid="1" gridSize="10" guides="1" tooltips="1" connect="1" arrows="1" fold="1" page="1" pageScale="1" pageWidth="827" pageHeight="1169" math="0" shadow="0">
      <root>
        <mxCell id="0" />
        <mxCell id="1" parent="0" />
        <mxCell id="O6di3k8Y4d7J4SgJZkvm-5" style="edgeStyle=orthogonalEdgeStyle;rounded=0;orthogonalLoop=1;jettySize=auto;html=1;entryX=0.5;entryY=0;entryDx=0;entryDy=0;" edge="1" parent="1" source="O6di3k8Y4d7J4SgJZkvm-1" target="O6di3k8Y4d7J4SgJZkvm-2">
          <mxGeometry relative="1" as="geometry" />
        </mxCell>
        <mxCell id="O6di3k8Y4d7J4SgJZkvm-1" value="业务架构" style="rounded=1;whiteSpace=wrap;html=1;fillColor=#fff2cc;strokeColor=#d6b656;fontSize=16;" vertex="1" parent="1">
          <mxGeometry x="330" y="190" width="120" height="60" as="geometry" />
        </mxCell>
        <mxCell id="O6di3k8Y4d7J4SgJZkvm-6" style="edgeStyle=orthogonalEdgeStyle;rounded=0;orthogonalLoop=1;jettySize=auto;html=1;entryX=0.5;entryY=0;entryDx=0;entryDy=0;" edge="1" parent="1" source="O6di3k8Y4d7J4SgJZkvm-2" target="O6di3k8Y4d7J4SgJZkvm-3">
          <mxGeometry relative="1" as="geometry" />
        </mxCell>
        <mxCell id="O6di3k8Y4d7J4SgJZkvm-7" style="edgeStyle=orthogonalEdgeStyle;rounded=0;orthogonalLoop=1;jettySize=auto;html=1;entryX=0.5;entryY=0;entryDx=0;entryDy=0;" edge="1" parent="1" source="O6di3k8Y4d7J4SgJZkvm-2" target="O6di3k8Y4d7J4SgJZkvm-4">
          <mxGeometry relative="1" as="geometry" />
        </mxCell>
        <mxCell id="O6di3k8Y4d7J4SgJZkvm-2" value="应用框架" style="rounded=1;whiteSpace=wrap;html=1;fillColor=#ffe6cc;strokeColor=#d79b00;fontSize=16;" vertex="1" parent="1">
          <mxGeometry x="330" y="330" width="120" height="60" as="geometry" />
        </mxCell>
        <mxCell id="O6di3k8Y4d7J4SgJZkvm-3" value="数据架构" style="rounded=1;whiteSpace=wrap;html=1;fillColor=#d5e8d4;strokeColor=#82b366;fontSize=16;" vertex="1" parent="1">
          <mxGeometry x="186" y="480" width="120" height="60" as="geometry" />
        </mxCell>
        <mxCell id="O6di3k8Y4d7J4SgJZkvm-4" value="技术架构" style="rounded=1;whiteSpace=wrap;html=1;fillColor=#f5f5f5;strokeColor=#666666;fontSize=16;fontColor=#333333;" vertex="1" parent="1">
          <mxGeometry x="465" y="480" width="120" height="60" as="geometry" />
        </mxCell>
        <mxCell id="O6di3k8Y4d7J4SgJZkvm-8" value="使用方法论对业务进行划分，在线教育网站：视频，用户，商品订单。进行划分，不需要考虑用什么技术，并发多大" style="shape=callout;whiteSpace=wrap;html=1;perimeter=calloutPerimeter;position2=0;fillColor=#fff2cc;strokeColor=#d6b656;fontSize=16;size=40;position=0.34;" vertex="1" parent="1">
          <mxGeometry x="465" y="30" width="250" height="150" as="geometry" />
        </mxCell>
        <mxCell id="O6di3k8Y4d7J4SgJZkvm-9" value="对整个系统实现的总体上的架构进行指出系统的层次，各个层次的应用服务" style="shape=callout;whiteSpace=wrap;html=1;perimeter=calloutPerimeter;position2=1;fillColor=#ffe6cc;strokeColor=#d79b00;fontSize=16;" vertex="1" parent="1">
          <mxGeometry x="20" y="190" width="266" height="150" as="geometry" />
        </mxCell>
        <mxCell id="O6di3k8Y4d7J4SgJZkvm-11" value="一套对存储数据的架构逻辑，从哪里来到哪里去，包括异构，ETL，缓存，聚合应用等" style="shape=callout;whiteSpace=wrap;html=1;perimeter=calloutPerimeter;position2=1;fillColor=#d5e8d4;strokeColor=#82b366;fontSize=16;" vertex="1" parent="1">
          <mxGeometry x="-70" y="370" width="220" height="140" as="geometry" />
        </mxCell>
        <mxCell id="O6di3k8Y4d7J4SgJZkvm-12" value="应用架构是识别的技术需求，根据业务需求进行技术选型，纯技术层面分层，开发框架和编程语言选择" style="shape=callout;whiteSpace=wrap;html=1;perimeter=calloutPerimeter;position2=0.11;fillColor=#f5f5f5;fontColor=#333333;strokeColor=#666666;fontSize=16;" vertex="1" parent="1">
          <mxGeometry x="580" y="330" width="225" height="140" as="geometry" />
        </mxCell>
      </root>
    </mxGraphModel>
  </diagram>
</mxfile>
